# xmcd
#
# Track frame offsets:
#	150
#	16853
#	34125
#	50265
#	62137
#	74588
#	93403
#	109560
#	134051
#	154893
#	180240
#	195845
#	212390
#
# Disc length: 2984 seconds
#
# Revision: 0
# Processed by: cddbd v1.5.2PL0 Copyright (c) Steve Scherf et al.
# Submitted via: dBpowerAMP V4.0
#
DISCID=a90ba60d
DTITLE=Terraplane Blues - Yesterday's Blues
DYEAR=1998
DGENRE=Blues
TTITLE0=I Got What It Takes
TTITLE1=Nobody Knows
TTITLE2=Litterbug, Litter On
TTITLE3=Rock Me Mama
TTITLE4=Found Him In The City
TTITLE5=I've Got The Blues
TTITLE6=Drop Down Mama... Even The Pope's Got To Boogie
TTITLE7=Fish In Dirty Water
TTITLE8=That's All Right Mama
TTITLE9=Ol' Dog
TTITLE10=Nothin's Changed
TTITLE11=I'm In Love Again
TTITLE12=Yesterday's Blues
EXTD=
EXTT0=
EXTT1=
EXTT2=
EXTT3=
EXTT4=
EXTT5=
EXTT6=
EXTT7=
EXTT8=
EXTT9=
EXTT10=
EXTT11=
EXTT12=
PLAYORDER=
